<svg width="140" height="100" viewBox="0 0 140 100" xmlns="http://www.w3.org/2000/svg"><path d="M19.22 25.11c-6.325 0-11.67 4.846-11.67 14.317 0 5.617 2.618 9.802 7.199 11.895L6.133 67.07c-.327.55 0 .88.436.88h4.036c.327 0 .545-.11.654-.44l7.853-15.529H22V67.51c-.053.22.165.44.4.44h3.16c.64 0 .337-.164.44-.44V25.75c-.102-.455.092-.64-.65-.64h-6.13zm.328 23.348c-3.708 0-7.307-2.753-7.307-9.581 0-7.159 3.38-10.022 6.87-10.022H22v19.603h-2.452z" fill="#F00"/><path d="M46.842 39.317h-3.49c-.327 0-.436.22-.436.44v10.904h-6.435V39.758c0-.33-.109-.44-.436-.44h-3.49c-.327 0-.436.22-.436.44V67.51c0 .33.109.44.436.44h3.599c.218 0 .436-.22.436-.44V54.295h6.435v13.216c0 .33.218.44.436.44h3.49c.328 0 .437-.22.437-.44V39.758c0-.22-.219-.44-.546-.44zm79.945 26.872l-.437-1.982c-.109-.22-.109-.22-.327-.22-.327 0-1.854.66-4.035.66-4.254 0-6.326-4.184-6.326-10.792 0-5.837 1.745-11.564 4.69-11.564.763 0 1.745.22 3.272 1.652.218.22.327.22.436.22.218 0 .327-.11.545-.44l1.527-2.534c.11-.22.218-.33.218-.55 0-.22-.218-.44-.545-.55-2.29-1.212-3.926-1.433-5.235-1.433-5.344 0-9.38 6.388-9.38 16.41 0 8.59 3.927 13.546 9.598 13.546 2.4 0 4.908-1.101 5.89-1.872.109-.11.109-.33.109-.55zm-24.54-13.986l6.653-12.445c.11-.22.11-.44-.218-.44H105.3c-.982 0-1.309.33-1.636 1.1l-5.017 10.573c-.327.661-.545.991-.873 1.212V39.758c0-.22-.109-.44-.327-.44h-3.49c-.218 0-.327.22-.327.44V67.51c0 .22.11.44.327.44h3.708c.219 0 .328-.22.328-.44V53.304c.218.11.327.33.436.55l6.326 13.217c.327.66.872.88 1.527.88h3.599c.218 0 .327-.22.218-.44l-7.853-15.308zM69.855 64.317H69.2c-.873 0-1.091-.33-1.091-.991V39.758c0-.33-.11-.44-.327-.44H56.549c-.327 0-.436.22-.436.44v2.092c0 6.939-.436 15.86-4.036 22.577h-1.2c-.327 0-.436.22-.436.44v8.26c0 .331.219.441.437.441h2.726c.655 0 .873-.44.873-.88v-4.736h12.106v5.176c0 .22.218.44.436.44h2.836c.327 0 .654-.33.654-.88v-7.93c-.109-.22-.327-.44-.654-.44zm-5.999 0h-8.18c2.836-4.956 4.036-10.572 4.363-17.4.11-1.432.218-3.084.218-3.965h3.6v21.365zm17.56-25.66c-6.108 0-8.834 7.819-8.834 16.189 0 8.59 3.817 13.766 9.488 13.766 2.727 0 5.235-1.101 6.435-1.872.218-.11.327-.33.218-.55l-.436-1.983c-.11-.22-.218-.33-.436-.33-.219 0-1.854.66-4.145.66-4.362 0-6.326-3.854-6.326-8.81v-1.322s2.182.22 3.49.22h8.18v-2.422c0-8.81-3.163-13.547-7.634-13.547zM77.38 51.321s0-.881.11-1.763c.545-4.845 1.744-7.268 3.708-7.268 1.854 0 2.944 2.533 3.163 6.938.109.881.109 1.982.109 1.982h-3.71l-3.38.11z"/></svg>