<svg xmlns="http://www.w3.org/2000/svg" width="60" height="24" viewBox="0 0 79 32"><path d="M41.508 25.922h-1.487V9.574h-8.696v1.598c0 4.978-.186 10.773-1.894 14.75h-1.152v6.056h2.6v-3.68h8.028v3.68h2.601v-6.056zm12.13-1.118c-.742.52-2.043 1.264-3.68 1.264-2.302 0-3.493-2.23-3.493-6.466h7.806v-1.597c0-6.353-2.044-8.693-5.166-8.693-3.977 0-5.649 4.382-5.649 10.402 0 5.76 2.379 8.843 6.244 8.843 1.857 0 3.419-.595 4.608-1.524l-.67-2.23zM23.594 9.574v7.654h-4.31V9.574h-2.899V28.3h2.899v-8.694h4.31V28.3h2.862V9.573h-2.862zm41.195 18.702h3.16l-5.316-9.92 4.645-8.807h-2.933l-4.497 8.657V9.55l-2.759.03v18.723l2.759-.028v-9.326l4.942 9.326zm14.053-1.124l-.668-2.155c-.669.593-1.746 1.15-3.16 1.15-2.34 0-3.456-2.674-3.456-7.355 0-4.719 1.487-7.06 3.568-7.06 1.19 0 2.304.632 3.086 1.301l.408-2.75c-.818-.52-1.784-.966-3.456-.966-4.386 0-6.654 3.753-6.654 9.623 0 6.39 2.418 9.624 6.431 9.624 1.71 0 2.899-.558 3.901-1.414zm-41.604-1.263h-4.98c1.56-3.976 1.747-9.735 1.747-13.673v-.334h3.233V25.89zm14.002-8.661h-4.794c.187-3.344.818-5.536 2.6-5.536 1.674 0 2.194 2.341 2.194 5.536zm-41.036.864v10.181h2.861V1.583H8.792c-4.2 0-7.683 2.533-7.683 7.85 0 4.716 1.514 6.764 3.854 7.953L-.016 28.273h3.307l4.534-10.181h2.38zm-.003-2.407H8.677c-2.49 0-4.5-1.29-4.5-6.036 0-4.116 2.196-5.757 4.5-5.757h1.524v11.793z" fill="#fff" fill-rule="evenodd"/></svg>